<svg id="レイヤー_2" data-name="レイヤー 2" xmlns="http://www.w3.org/2000/svg" viewBox="0 0 2836 657"><defs><style>.cls-1,.cls-2{fill:#020201;}.cls-2{fill-rule:evenodd;}</style></defs><title>筑波大学人形劇団NEU_一文字ロゴ</title><path d="M410.75,258.68,364,211H164.1L105,260.43l4,209.14,44.43,49.6H373.49L412,479.74ZM206.8,242.23l25.42,1.86-3.72,16.12h24.81L245.25,298H222.3V281.92H200Zm40.62,115.65h-18l-2.48-26H215.79l-5.58,31h-21.7l11.78-57h44ZM142.93,242.23h26l-8.06,21.08h32.25l-7.44,32.87H162.15V282.54H128.67Zm-14.57,98.91,18-3.1V325.63h-18l.62-17.36,55.81-2.48V325H168v10.55h16.75v18.6l-53.95,8.68ZM247.06,431l-40.49-4.22,29.76,67.6-30.81.49L185.67,452.1l-31.62,47.75L135.2,487.52,172,422.35l-35.09-2.56-.25-24.12,40,.27,3-20.23,22.12.12.62,22.94L252,406.83Zm127.85,47.25s-31.41-5.42-34.44-4.41c0,0,2,16.18-5.28,29.84-.44.82-42.78-2.49-42.78-2.49l-2.49-16.74,20.47-1.86,3.78-9.76s-26.29-1-38.43,2c0,0,4.76-17.47,5.5-17.68,8.66-2.55,38.29-1,38.29-1l5.58-8.06-28.36-.21,5.58-18.61H363.1l-19.23,28.53a265.69,265.69,0,0,1,32.28,0C376.89,457.86,374.91,478.27,374.91,478.27ZM391.62,455l-22.32-3.1s5.56-27.62,2.48-29.15c-4.24-2.1-82.48,1.86-82.48,1.86l-2.48,23.57-21.7-3.1s.51-14.73,5.58-44c0,0,8,0,8,0l-2.31-23.38,27.29-4.34,4.87,27.72h8.68V372.15l30.38,2.48-9,26.44H351.1l6.42-24.81,22.94,3.11-7,21.7h25.58Zm-127-204.56L305,256l-2.48,23.57H264.66Zm32.87,40.93v19.22l-32.87,6.2-2.48-23.56ZM292,328.6v16.12l-17.37,16.12-14.26-21.08Zm86.19,32.24L358.8,335.18,344,359l-14.57-4.58c2-8.09,17.19-30.34,17.19-30.34s-14.16-24.27-14.33-33.2c0-.25,15.34.53,15.34.53V276.51l-17.18.6-13,84.33s-20.12-.73-20.1-1c1.76-26.28,19.22-106.57,19.22-106.57l25,.39L340.93,230h27.91l-7.44,24.8h26l.62,20.47-25.42,1.24-1.24,14.88,24.4,2.83L367.9,322c8.09,7.08,24.4,31.57,24.4,31.57Z"/><g id="g4253"><g id="g4263"><path id="path4265" class="cls-1" d="M734,229.4S615.65,356.83,561.36,447.21c0,0,26.6,26.91,52.66,38,0,0,45.84-43.89,82.25-72.82,0,0,61.44,39.34,94,59.82l41.93-42.59-93.62-64.36-.33-2.47L813,274.59l-.32-3.9Zm103,43.89,1,4.87-69.24,79.32-.32,3.25c54.29,27,101.75,70.55,101.75,70.55-25.36,30.55-82.9,66.64-82.9,66.64L695.94,442l-74.76,72.77-88.1-64s-.67-4.09,0-5.2c37.16-61.85,192.77-234.71,192.77-234.71C778.19,228.75,837,273.29,837,273.29"/></g><g id="g4267"><path id="path4269" class="cls-2" d="M979.09,312.83l-17.3.6-1.19,19.63,1.19,2.81L981.28,334l-1.58-21.21Zm-38.52-19.15-2.69,3.17,3.91,58,2,2.68,58-2.43,3.42-4.39-2.93-53.64-5.61-3.42Zm-70.38-40.22s-8.46,26-2.28,54.94h52.66l1.95,48.11-1.95,3.25L863,366.26s-3.9,18.2-1.3,29.58h39.34l8.78,82.9h44.21l9.43-68.27,38.68-2.92s-1.3,49.08,3.25,58.19l20.15-1.95s7.48-50.39,4.56-75.42l28.28-4.88,1.95-24.06-28.93-5.2-9.76-60.46,22.43-3.9-1.62-36.41Zm169-15.61,20.15,2.93,5.53,66.64L1062,310l-21.78,2,5.53,24.06c9.1,0,33.48,5.85,33.48,5.85,1.3,11.38,1.63,51.69,1.63,51.69l-3.9,2.6L1046.06,403l-1.63,69.25-1.62,3.25a164.43,164.43,0,0,1-53,1.3l-6.18-50.39h-3.58l-9.1,66-5.52,4.55-68.27,2.28L892.94,496c-5.85-18.86-10.07-83.22-10.07-83.22H851.33l-8.59-5.53,5-55.59,52-9.75V326l-54.94,3.58-2-3.25c-1.3-37.39,7.15-86.15,7.15-86.15l5.53-2.28Z"/></g><g id="g4271"><path id="path4273" class="cls-2" d="M1088,286.62l7.15,28.12,54-18.21a163,163,0,0,0-12.52-33.81Zm83.38,25.19-87.44,25s-4.55-11.7-10.73-24-7-34-7-34c10.89-8.45,74.77-37.06,74.77-37.06h3.9c13.49,21.13,26.49,70.06,26.49,70.06"/></g><g id="g4275"><path id="path4277" class="cls-2" d="M1152.36,351.14,1115.46,362l-5,4.39,5.37,24.55,43.07-5.37,1-4.06Zm15.83-20.64c6.89,7.15,15.54,66.48,15.54,66.48l-2,4.06-79.65,11.38-16.41-60.14s75.58-28.93,82.47-21.78"/></g><g id="g4279"><path id="path4281" class="cls-2" d="M1087.83,445.42l5.69,24.87s48.92-6,59.81-5.21c0,0-.65-20-5.52-33Zm75.42-26.82,7.64,56.24-5.2,2.92c-15.61-.16-86,10.89-86,10.89-9.59-17.06-11.21-55.1-11.21-55.1,38-13.49,94.76-14.95,94.76-14.95"/></g><g id="g4283"><path id="path4285" class="cls-2" d="M1390.89,235.9s-6.83,19.51-2.93,33.4h14.63a82.63,82.63,0,0,0,6.83-33.4Zm-59.25-6.09v34.37H1356s2-20-3.9-36.57ZM1223.88,246.3l-4.23,9.76s-13.65,69.24-13,96.87l27,5.2,15.6-34.78,53,6-26.33,76.56,22.43,2.93,28-75.1,31.2-2.92s5.86-22.76,4.23-38c0,0-64-6.66-105-3.49l8.45-45.6ZM1285,218.67l2.93,4.88L1285,269.06l32.18.33c-8.77-26-4.55-52.67-4.55-52.67,46.81-11.05,51-3.25,51-3.25l4.23,15.61h2.92l2.93-13.33,53.31,5.2,3.9,2.27-11,63.4-37.39,1.3c3.26,16.58-4.87,57.21-4.87,57.21l-32.51,5.53-30.88,76.39-58.52-5.85.33-15,14.3-63.71-6.17-.33L1254.76,375l-2.93,1.3-65.12-7.8c-1.73-40.64,20.59-145.32,20.59-145.32,29.58-5.52,77.69-4.55,77.69-4.55"/></g><g id="g4287"><path id="path4289" class="cls-2" d="M1358.7,375.36l7.56,35.36-40.47,11.45,3.9,16.34,34.62-5.61,3.17,2,2.68,26.82-2,3.9s-13.16-1.7-38.28,8.05a20.45,20.45,0,0,0,1.71,15l31-5.77,13.17,1,12,34.13,25.6-3.22s0-18.23-8-35.3l2.19-2.93,28-5.12,1.71-12.43L1407,460.94l-8.29-32.67,29.5-7.8L1427,401.94s-14.63-.73-27.06,1.7l-8.54-32.75s-4.87-.89-32.67,4.47m48-21.7c-1.46,14.39,3.66,28.77,3.66,28.77h25.84C1445,401.94,1445,438,1445,438s-2.68,0-11.94,1-7.32,6.82-7.32,6.82l27.55.25,1.46,39.74-2.68,2.84c-9.51-.56-21.13,2.52-21.13,2.52l3.82,31-1.7,3.17-56.81,8-6.59-3.17-10.24-30.47-40,5.12-4.15-3.17L1311.16,458l2.68-1.46,14.39-1.22v-2.19l-4.15.49c-4.14.48-3.9.48-11-5.86l-4.33-41.44,34.81-5.85-8.78-37.8a505.5,505.5,0,0,1,71.92-9"/></g><g id="g4291"><path id="path4293" class="cls-2" d="M1503.92,266.71s5.85,177.5,23.89,230.16c0,0,176,13.66,252.1,0l3.9-230.16s-201.87-21.45-279.89,0M1808.19,244l-4.87,274.61h-295.5l-2.93-2.92c-11.05-61.44-19.83-271.12-19.83-271.12,86.48-13.33,323.13-.57,323.13-.57"/></g><g id="g4295"><path id="path4297" class="cls-2" d="M1563.7,314.4s-4.39,88.75,8.78,146.29c0,0,113.13-3.41,155.55-6.83l-2.93-63.39,16.58-.48-3.41-58h-11.7l-.49-20.73-2.93-4.14h-15.6l-2.44-13.65-67.29,4.39-.49,9.75s-55.41,3.47-73.63,6.82m171.16-29.74,6.82,3.41L1747.53,469c-27.79,5.36-189.68,11.7-189.68,11.7-12.19-35.59-8.78-120.44-10.24-136.53s-3.9-50.71-3.9-50.71Z"/></g><g id="g4299"><path id="path4301" class="cls-2" d="M1642.79,309.67l-2.44,33.41s-22.18,5.85-51.68,4.39c0,0-6.59,8.77-5.37,24.86l62.17,4.64,10.73,81.67,33.16.25,3.41-71.44s20.73-4.39,38.53-4.39L1729.59,348l-32.67.73-2.93-39s-9.26-4.14-51.2,0m70-15.36.24,35.84,24.38-1.95,3.42,75.71-29.75,1.34-4.14,60.46-68.27,1.47c1-17.31-12-72.17-12-72.17l-68-7.56,11.94-59h51.21L1624,299Z"/></g><g id="g4303"><path id="path4305" class="cls-2" d="M1609.39,413.05s-16.58,2.68-24.62,9l7.8,23.16,26.33-7.31Zm31.45,38.77-57,16.58c-9.51-13.17-18.53-62.91-18.53-62.91l53.64-13.16c7.07,8.53,21.94,59.49,21.94,59.49"/></g><g id="g4307"><path id="path4309" class="cls-2" d="M1871.94,281.22s-.65,183.67,9.43,213.25l59.49,5.2L1934,361.84l3.25-5.2s93,112.8,106.63,145h92.32s11.05-206.42,17.55-215.53l-76.06-7.15L2080,414.82l-4.87.33L1969.79,266.91Zm109.55-32.84c7.15,3.58,80,119,80,119l-2.27-106.62,2.6-2.28,111.17,13c-8.77,29.59-14.3,249.34-14.3,249.34H2029.93l-6.83-5.53C2019.2,501.62,1961,422,1961,422h-2.27l7.8,95.57L1962,520.8l-91-9.1-10.4-7.8-12.68-236.34c20.48-6.17,133.61-19.18,133.61-19.18"/></g><g id="g4311"><path id="path4313" class="cls-2" d="M2212,300.4V496.75s63.07,4.87,125.16,0l1.95-36.41-63.55-.33-5.48-5.85-2.16-40.64,69.56-2.6,1.63-21.78-3.58-1.62-63.06,2-6.18-1.3-6.17-56.89,73.46-4.23V296.5Zm138.49-23.08,5.2,4.87,1.62,68.92-6.17,1.95-75.75,1,2.6,14,75.1-1.62,4.22,3.57-2,57.54-2.6,2.28-67.61,2.6.65,6.5,64.36,2.28,5.2,5.2v66.31l-4.22,3.58-160.59,6.5-2.93-5.52,3.58-236.66,6.5-4.56c57.21,8.13,152.79,1.31,152.79,1.31"/></g><g id="g4315"><path id="path4317" class="cls-2" d="M2477,283.78l-1.62-2.28-64,1.14s1.62,54.78,3.57,77.86S2408.43,486,2499.78,499c63.23,9,75.74-16.9,93-53.64s15-115.07,14.63-139.78c0,0-29.91-.65-52-3.9,0,0-1.95,44.21-2.93,75.42s-22.75,38.68-29.25,41-43.56-4.23-45.51-63.72-.66-70.54-.66-70.54M2492.3,261c-3.25,118.33,7.15,138.16,25.36,135.89,16-2,14-111.51,14-111.51l5.53-6.82,83.87,5.85s6.69,1.17,7.47,6.5C2647,417.06,2598,486,2582.35,500s-41,27-96.22,16.25c-73.87-14.34-85.5-114.75-90.05-150.51s-4.55-102.4-4.55-102.4l4.55-4.88Z"/></g><g id="g4327"><path id="path4329" class="cls-2" d="M960.56,73.77s-1.87-.33-4.71,1.71c0,0-.41,5-.49,6.74s-.33,3.09-3.74,5.12l-.73,8.45s-16.5,6.59-1.79,8l.16,1.7s-2,2.12-6.74,1.71-4.31,1.87-3.17,2.93,3.33,2,9.91,0l1.06,5.85s2.44,2.68,8.86,2.68l.16,3.82a11,11,0,0,0-9.77,7.8c-2.66,7.72-24.12,13.17-24.12,13.17l-3.74-.57s-11.05-4-15.11-13.17c0,0,2.11-4.39,0-10.81s-4.47-2.35-4.88-.08-.81,5.45-.81,5.45l-1.14,1.3-1.46-1.63s-4.31-6-3.82,3.41c0,0-7.61-.26-2.2,3,2.18,1.32,8,4,8,4s14.89,16.77,20,17.71c7.88,1.46,12.84-3.74,18.45-6.5s.49,12.11-3.82,17.72-5.85,7.64-18,3.57-13.41-5.28-15.44-6.5a8.51,8.51,0,0,1-2.93-2.84l-2.85.16s.57,2.11-.16,3-8.86-2.12-8.86-2.12-5.85.82-1,3.42,2.27,5.77,1.7,6.66-2.6,4.15,3.09,2.93,12.76-5.85,23-.57,9.75,6.58,13.49,8.45,6.59.16,3.5,10.48a163.23,163.23,0,0,0-4.63,22.76s-9.06,7.23,1.42,10.61l.36.12s1.87,6.66,8.78-.74c0,0,1.95,7.73,7.72,2.2l3.33,2.76-.81,5.94-9,8,20,.49.08-11.05a23.59,23.59,0,0,1,5.21-5.53c3.57-2.85,3.41-1.06,3.73-.08s1.79,2,5.29.65v14.22l20.64.33-9.84-5-.4-7.48,1.79-2.36s5.12,4.72,7.64-1.38c0,0,4.87,3.09,6.74-2.27,0,0,4.88,6.74,9.27.16,0,0,3.82,3.82,8-1.14,0,0,9.83,9.51,8.78-10.64,0,0-27.71-36.41-38.69-63.64s-3.25-22.83-12.67-24.46l-.17-4.15s2.77,2.2,10.32-3.41c0,0,15.69-2.36,3.5-5.12,0,0-7.13-6.5-9.08-13.5,0-.13-.07-.26-.11-.4l1-2.76s0-6.5.57-11.54l.57-5s-.73-8.94-7.64,2.6h-1.55s1.47-17.23-7.63,1.87h-1.31Z"/></g><g id="g4331"><path id="path4333" class="cls-2" d="M1305,113.83s2.77-6.17-4.67-4,1.46,8.78,1.46,8.78,5.24,13.9,14.39,19.14,8.41,4.39,8.41,4.39l-3.54,8.77a14,14,0,0,0-12.25,1.1c-6.28,3.78-8.3,2.68-11.43,2.68s-9,1.1-11.79,4.39c0,0-4.76-2.07-5,2.81s-.61,8.53-.61,8.53-6.82,7.8-4,14.38c0,0-7,2-10.12,5.73s.85,4.15,6,0,6.59,0,6.59,0l3.41.13,1.1-3.17-1.47-2.44s3.54-3.17,8.29-20c0,0,13.78.48,21.46-1.83,0,0-3.54,15,21.45,41.69l-10.48,13.29,17.56-1.47a18.29,18.29,0,0,0,.85-6c-.25-2.57.49-2.21,1.34-3.79s0-4.75,0-4.75,5.36-1.95,1.95-5a9.56,9.56,0,0,1-2.93-7.56l19.63-3s9.75,14.27,12.07,17.07,4.51.85,5.73-.12,4.87-2.68,8.65-4.15,2.08-3.17,2.08-3.17,6.34-3.78-6.22-4.39l-6.71,3.54-12.19-15.85s.86-2.19-4.51-1.46-22.91-.37-22.91-.37l-2.81-16.45s9.39-2.69,12.31-3.91,3.3-1.46,7.08.62,16.57,6.46,16.57,6.46-4.87,9.38,2.81,5.36,7.07-1.71,7.31-1,5.61-.48,4-3.29-7.93-1.09-7.93-1.09l-23.16-14.39s-19.87,2.81-23.53,2.56,2.68-6.34,2.68-6.34l4.76-.24c2.8-5,2.31-13.05,2.31-13.05s9.63-3.9,2.2-5.24-3.9.85-6-3.9-22.58-9.15-30.19-10"/></g><g id="g4335"><path id="path4337" class="cls-2" d="M1682.14,150s-4.15,2.2-4.15,4.64c0,0-3.1.64-3.65,1.46a2.51,2.51,0,0,0,0,2.19c1.08,1.28,6.34,2.2,6.34,2.2l1.46,5.36s-.49-.22-7.8,1-4.88,4.86-4.88,4.86h2.19s1.22,9.27,6.83,8.78c0,0,3.9-1.46,6.34-7.8,0,0,.24,2.68,12.19,1.58v5s-2.92-4.63-18.53,14.14-13.16,14.88-13.16,14.88-4-1.61-6.25,1.56c0,0-21.2,2.1,0,3.83,2,.16,2.71,1.93,2.53,4.91s3.17,2,3.46-1.51-.09-5,3.45-6.38a72.77,72.77,0,0,0,18.26-11.18s1.06,7.71-5.85,24.13,7.64,8.29,10.81,7.23a9.91,9.91,0,0,1,5.28-.49s1.3,9.92-8.37,12.84h14.47s-2.69-7.88,1.62-14.63l11.14-1.38,2.76,6.75-7.64,8.85,20,.41-9.51-15.44,1.79-1.22,12.52-.24,1-2.28L1724,197.91l1.3-1s13,1.22,18.45,4.55c0,0,2.4,9.76,4.39,2.93.73-2.52,4.55-1.87,7.72-1.95s7.32-4.88,0-4.23-5.61,3.33-12.84-.81-31.78-18.78-31.78-18.78l-4.55-.08.33-11.13,1.7-.16s3.74,4.87,6,7.55,4.55,2.52,4.14-.73c0,0,3.82.65,3.74-3.82,0,0,6.91-1.38-.08-3.82s-8.53-3-8.53-3,4.79-17.48-5.2-25.36-18.12-1.81-20.4,0c-1.27,1-6.51,6.18-6.26,11.86"/></g><g id="g4339"><path id="path4341" class="cls-2" d="M539.25,228.34S525.6,214,508.78,230.78,484.15,252,488.3,267.11s1.95,13.17,1.95,13.17-12.16,12.8,4.87,7.55c6.34-1.95,5.61-4.38,3.66-8.53l1.71-4.88,10.24,6.83s3.3,18.2,10.73,5.37c2.68-4.64,1.46-8.05-3.17-11.22,0,0-1.95-7.07,2-13.41s7.28-6.34,12.54-2.44,5,.25,9.64,5.61c0,0-4.39,6.83-7.07,10.73s-6.09,14.87-5.85,24.13,1,19.51,1.46,25.85-3.41,14.87,5.12,11.95,29.51-3.42,29.51-3.42,8.86,10.84,7.07-1.7c-.74-5.12-3.42-6.1-3.42-6.1s3.42-9-5.6-2.19l-14.39,2.19-2.44-.73s-8.53-21.7-.24-28c0,0,12.19,8.53,18,13.17s4.88,7.8,15.12,9.26,19,12.44,19,22.68a166.41,166.41,0,0,0,2.2,23.16L617,347.32a65.7,65.7,0,0,1-4.88-25.11l-9.51-16.82s15.61-10.24,30-13.17l15.61,4.39v4.63l21.45-22.18-8.29,1s.25-3.9-4.14.25-5.37,2.68-6.83,4.63-5.12-.73-9.26-2.2-5.85-6.58-17.31-5.85-21.46,1.47-21.46,1.47-6.09-5.86-11-9.76,10.24-7.07,10.24-7.07l1.22-1s1.22-10.73,1.71-16.09.24-9.51,4.38-15.12,5.12-7.31,2.44-11.22l-10.73,9s-3.9-6.34-6.33-3.42-2.93,3.42,1.7,7.32c0,0-2.92,8-4.39,12.43s-8,11-15.84,9.27-10.24-2.44-17.07,2.43-9.51,3.9-9.51,3.9a30.32,30.32,0,0,1-2.68-2.19c-2-1.71-2.68-2.93,5.36-7.8s4.63-8.53.25-11.46-6.83-5.85-4.39-8.05a3.32,3.32,0,0,0,.48-4.63Z"/></g><g id="g4343"><path id="path4345" class="cls-2" d="M2088.24,363.05l-2.2,2.68s-13.16.73,1.1,7.56a20.32,20.32,0,0,0,4.75,9.75c3.9,4.15,3.9,3.66,7.56,0s4.63,0,4.63,0-16,8.29-11.79,19.27c0,0-7.09,11.21-11.79,15.6a35.68,35.68,0,0,1-19.08,9.51c-8.54,1.46-22.41,4.12-3.42,5.85,1.79.16,3.34,4.39,5.29,0s6.9-3.74,9.18-3.74,8.78-1,18.41-15.24,8-11.82,8-11.82,9.88-1.79,7.12,7.35-9.39,19.51-13.7,26.9-12.22,14.66-11.5,26.46c.24,4-9.26,11.29-8,25.6s5,7.72,6.82,5.36,5.12-3.58,7,1.79,5,3.25,7.64,1.38,6.67-3.09,10.08.89,2.84,5.45,8.94-.24,6.42-2.19,7.72.41,3.33,3.41,7.56-1,3.74-5,9.51,0,4.47,3.09,5.77,1.63,14.3-.33,14.3-.33L2148.7,423s-13.75-2.83-25.52-18c-2.27-2.93-1.54-8.7-1.54-8.7s6.66,4.63,20.56,6.42l-.65-9.1s-10.08,1.71-13.41-5.93-15.12-6.1-15.12-6.1a7.29,7.29,0,0,1-2.35-5.52c0-3.66,1.54-2.85,4.3-.57s.82,2.11,5,.57,6.26-2,8.78-6.34,3.33-8.21-1.79-4.72-4.47,1.46-6.91-.16-10.15-6.42-9.83-13.57.65-5.37,1-8.13-1-6.75-4.15-1.3l-1.46-.33s.12-8.58-3.66.25c-.73,1.7-1.95,3.17-2.92-1.22s-4.8-3.49-4.31,1.38-.65,5.2-1.47,5.69a5.09,5.09,0,0,0-2.84,4.39c-.16,2.84-2.19-1-2.19,11.05"/></g><g id="g4347"><path id="path4349" class="cls-2" d="M2248.26,289.55l1.1-3.17s-5.49-1.7-3.05-7.07,3.75-7.42,7.56-4.88c.73.49,1.83,1.1,1.83,1.1s6.09-12.92,10.73-19a24.8,24.8,0,0,1,5.48-4s-2.07-3.9,2.07-11.58c0,0-8.17-19-8.53-26.94s5.73-14.14,8.53-1.46,5.61,19.75,7.8,22.67l3.42-.36s-.25-11.95,1.58-19.87,9.63-15.24,10.85,1.34-2.92,11.33-3.66,21.45-1.46,15.36-12.67,18.17c0,0,4.75,19.62,3.17,36.81Z"/></g><g id="g4351"><path id="path4353" class="cls-2" d="M2606,461.65s.81,9.54,1.13,16-2.43,12.29,11.71,16.85,15.76,5.68,15.76,5.68-5.36,19.35-5.68,32c0,0-10.57-3.08-21.14,1.31s-12.51,5-12.51,5l-3.9,6.18s1.95,10.57-2.12,26.17a51.2,51.2,0,0,1-7.47,1.46c-5.53.81-14.79,3.9-1.3,6.34s14.79,2,14.79,2,8.78-20.8,8.13-28.28,5.69-5.36,16.9-4.55,13,.65,13,.65,2.28,13.49,3.25,20-1.46,7.8,8.29,16.58,8.78,9.27,8.78,9.27a74.83,74.83,0,0,1-6.5,3.73c-4.88,2.61-4.23,13.66,4.71,5.85s9.43-9.26,9.43-9.26,3.9,1,2.11-4.23-12.51-20.15-12.51-20.15a93.88,93.88,0,0,1,4.55-41.12c2.28-6.5,6.5-15.45,6.5-15.45l19.18,12.68,1,3.09s-8,11.22-9.11,21.78a74.92,74.92,0,0,0-8.12,2.6c-3.09,1.3-3.25,4.72,1.62,3.25,0,0-3.6,15.75,5.75,4.88a44.07,44.07,0,0,0,6.61-10.56s6.82-2.77,10.24-14.8,2.27-10.07-1.63-15.11-20-21.78-30.07-22c0,0,2.44-7.31,2.6-12.67,0,0,2.44-1.3,7.64-5.86s7.15-12.35,1.62-18.69-18-6.5-26.65,8.62c0,0-5.36,0-6.18,2.76s3.58,4,3.58,4-2.68,12.46,8.61,11.48l-1.3,8.62s-8.78-3.74-11.7-4.56-.65-3.41-9.43-6.66-4.06-5.85-5.52-14.79-1.95-17.23-1.95-17.23Z"/></g></g></svg>