<svg xmlns="http://www.w3.org/2000/svg" viewBox="0 0 299.71 294.16"><defs><style>.cls-1{fill:#fcfcfc;}</style></defs><title>menu-icon--event-mono</title><g id="レイヤー_2" data-name="レイヤー 2"><g id="レイヤー_2-2" data-name="レイヤー 2"><path class="cls-1" d="M88.37,87.76S12.72,255,6,269s4.49,25.26,18.53,19.64,184.85-81.5,184.85-81.5"/><path d="M17.26,294.16a17.29,17.29,0,0,1-12.85-5.33c-5-5.39-5.82-13.64-2-21.52C9,253.47,84,87.79,84.72,86.11A4,4,0,0,1,92,89.41C88.92,96.24,16.27,256.85,9.59,270.77c-2.36,4.92-2.11,9.63.66,12.6S18,287,23,285c13.81-5.52,183-80.69,184.72-81.44a4,4,0,0,1,3.24,7.31c-7,3.1-171,76-185,81.56A23.56,23.56,0,0,1,17.26,294.16Z"/><ellipse class="cls-1" cx="151.38" cy="144.69" rx="31.16" ry="85.63" transform="translate(-57.98 149.42) rotate(-45)"/><path d="M200.76,213.11c-6.63,0-14.7-2.13-23.84-6.4-16-7.46-33.91-20.66-50.41-37.15s-29.69-34.4-37.15-50.41c-8-17.23-8.52-30.67-1.36-37.83s20.6-6.68,37.83,1.35c16,7.47,33.91,20.67,50.41,37.16s29.69,34.4,37.16,50.41c8,17.23,8.52,30.67,1.35,37.83C211.39,211.43,206.64,213.11,200.76,213.11ZM102,84.26c-3.67,0-6.52.9-8.34,2.71-9.09,9.09,4.5,42.91,38.51,76.93,15.85,15.85,33,28.48,48.13,35.56,13.56,6.33,24.32,7.43,28.8,2.95s3.37-15.24-2.95-28.79c-7.09-15.19-19.72-32.28-35.57-48.13S137.64,97,122.45,89.92C114.41,86.17,107.34,84.26,102,84.26Z"/><circle class="cls-1" cx="184.78" cy="56" r="9.26"/><path d="M184.78,69.26A13.27,13.27,0,1,1,198,56,13.28,13.28,0,0,1,184.78,69.26Zm0-18.53A5.27,5.27,0,1,0,190,56,5.27,5.27,0,0,0,184.78,50.73Z"/><circle class="cls-1" cx="223.79" cy="107.92" r="12.91"/><path d="M223.79,124.84a16.92,16.92,0,1,1,16.92-16.92A16.94,16.94,0,0,1,223.79,124.84Zm0-25.83a8.92,8.92,0,1,0,8.92,8.91A8.92,8.92,0,0,0,223.79,99Z"/><circle class="cls-1" cx="234.74" cy="32.98" r="8.7"/><path d="M234.74,45.68A12.7,12.7,0,1,1,247.44,33,12.72,12.72,0,0,1,234.74,45.68Zm0-17.4a4.7,4.7,0,1,0,4.7,4.7A4.71,4.71,0,0,0,234.74,28.28Z"/><circle class="cls-1" cx="278.81" cy="95.01" r="10.67"/><path d="M278.81,109.68A14.67,14.67,0,1,1,293.47,95,14.69,14.69,0,0,1,278.81,109.68Zm0-21.33A6.67,6.67,0,1,0,285.47,95,6.67,6.67,0,0,0,278.81,88.35Z"/><circle class="cls-1" cx="113.2" cy="42.81" r="10.1"/><path d="M113.2,56.91a14.11,14.11,0,1,1,14.11-14.1A14.12,14.12,0,0,1,113.2,56.91Zm0-20.21a6.11,6.11,0,1,0,6.11,6.11A6.11,6.11,0,0,0,113.2,36.7Z"/><circle class="cls-1" cx="244.84" cy="205.32" r="10.39"/><path d="M244.85,219.71a14.39,14.39,0,1,1,14.38-14.39A14.41,14.41,0,0,1,244.85,219.71Zm0-20.77a6.39,6.39,0,1,0,6.38,6.38A6.39,6.39,0,0,0,244.85,198.94Z"/><path class="cls-1" d="M184.5,180.9a5.05,5.05,0,0,1-2.51-9.44c7.77-4.44,28.34-15.26,51.35-19.79,24.64-4.86,43.76-1,56.82,11.55a5.05,5.05,0,0,1-7,7.3c-10.55-10.12-26.66-13.12-47.87-8.94-21.56,4.25-41,14.46-48.3,18.66A5,5,0,0,1,184.5,180.9Z"/><path d="M252.61,149.64c15.54,0,28.12,4.54,37.55,13.58a5.05,5.05,0,0,1-7,7.3c-7.48-7.17-17.74-10.77-30.64-10.77a89.38,89.38,0,0,0-17.23,1.83c-21.56,4.25-41,14.46-48.3,18.66a5.05,5.05,0,0,1-5-8.78c7.77-4.44,28.34-15.26,51.35-19.79a100.09,100.09,0,0,1,19.27-2m0-8a107.77,107.77,0,0,0-20.81,2.18c-24.18,4.76-45.66,16.06-53.78,20.7a13.06,13.06,0,0,0-4.85,17.81,13,13,0,0,0,17.8,4.85c7-4,25.48-13.73,45.87-17.75a82.1,82.1,0,0,1,15.69-1.68c10.75,0,19.19,2.88,25.11,8.54a13,13,0,0,0,9,3.63,13,13,0,0,0,9-22.47c-10.94-10.49-25.44-15.81-43.09-15.81Z"/><path class="cls-1" d="M122.18,104a5.06,5.06,0,0,1-4.24-7.79c31.15-48.35,26.25-82,26.2-82.36a5.05,5.05,0,1,1,10-1.59c.24,1.52,5.54,37.87-27.69,89.42A5,5,0,0,1,122.18,104Z"/><path d="M149.14,8a5,5,0,0,1,5,4.26c.24,1.52,5.54,37.87-27.69,89.42a5,5,0,0,1-8.49-5.47c31.15-48.35,26.25-82,26.2-82.36a5.06,5.06,0,0,1,4.2-5.79,5.39,5.39,0,0,1,.8-.06m0-8h0a12.69,12.69,0,0,0-2,.16A13.07,13.07,0,0,0,136.23,15c.05.42,1,8.3-1.52,21.41-2.36,12.32-8.35,31.94-23.5,55.44a13.07,13.07,0,0,0,3.91,18,13,13,0,0,0,18-3.9c14.41-22.36,23.68-44.7,27.54-66.4,3-16.91,1.5-27.46,1.32-28.6A13,13,0,0,0,149.14,0Z"/></g></g></svg>