<svg xmlns="http://www.w3.org/2000/svg" viewBox="0 0 239.63 293.55"><defs><style>.cls-1{fill:#040000;}.cls-2{fill:#fff;}</style></defs><title>menu-icon--culture-mono</title><g id="レイヤー_2" data-name="レイヤー 2"><g id="レイヤー_2-2" data-name="レイヤー 2"><rect class="cls-1" x="31.64" y="17.66" width="8" height="154.78" transform="translate(-20.01 10.15) rotate(-12.69)"/><rect class="cls-1" x="158.42" y="125.55" width="100.44" height="8" transform="translate(36.54 304.76) rotate(-77.35)"/><rect class="cls-1" x="83.11" y="112.55" width="218.05" height="8" transform="translate(15.24 255.15) rotate(-69.32)"/><rect class="cls-1" x="47.64" y="69.15" width="8" height="172.81" transform="translate(-58.58 34.25) rotate(-23.9)"/><rect class="cls-2" x="87.77" y="227.22" width="31.76" height="52.93" rx="13.5"/><path class="cls-1" d="M106,284.14h-4.76a17.52,17.52,0,0,1-17.5-17.5V240.72a17.52,17.52,0,0,1,17.5-17.5H106a17.53,17.53,0,0,1,17.5,17.5v25.92A17.53,17.53,0,0,1,106,284.14Zm-4.76-52.92a9.51,9.51,0,0,0-9.5,9.5v25.92a9.51,9.51,0,0,0,9.5,9.5H106a9.52,9.52,0,0,0,9.5-9.5V240.72a9.52,9.52,0,0,0-9.5-9.5Z"/><rect class="cls-2" x="119.53" y="236.63" width="31.76" height="52.93" rx="13.5"/><path class="cls-1" d="M137.78,293.55H133a17.52,17.52,0,0,1-17.5-17.5V250.13a17.52,17.52,0,0,1,17.5-17.5h4.75a17.52,17.52,0,0,1,17.5,17.5v25.92A17.52,17.52,0,0,1,137.78,293.55ZM133,240.63a9.51,9.51,0,0,0-9.5,9.5v25.92a9.51,9.51,0,0,0,9.5,9.5h4.75a9.51,9.51,0,0,0,9.5-9.5V250.13a9.51,9.51,0,0,0-9.5-9.5Z"/><rect class="cls-2" x="26.98" y="176.22" width="69.74" height="22.52" rx="7.5" transform="translate(60.3 -9.93) rotate(17.81)"/><path class="cls-1" d="M86.75,210.93a11.32,11.32,0,0,1-3.51-.55L31.13,193.64a11.51,11.51,0,0,1-7.43-14.47L26,172a11.53,11.53,0,0,1,14.46-7.43l52.12,16.74A11.51,11.51,0,0,1,100,195.79L97.71,203A11.52,11.52,0,0,1,86.75,210.93ZM37,172a3.43,3.43,0,0,0-1.61.4,3.49,3.49,0,0,0-1.74,2l-2.3,7.16a3.5,3.5,0,0,0,2.27,4.4l52.11,16.74a3.5,3.5,0,0,0,4.4-2.26l2.3-7.16a3.5,3.5,0,0,0-2.26-4.4L38,172.2A3.56,3.56,0,0,0,37,172Z"/><path class="cls-2" d="M230,5.81h0c-7.44-2.41-19.5-2.4-26.8,0L117.32,34.36,36.2,8C28.77,5.6,16.71,5.61,9.41,8h0c-7.31,2.43-7.2,6.39.24,8.8L90.77,43.19,16.41,67.89c-7.3,2.43-7.19,6.39.25,8.81h0c7.43,2.41,19.49,2.4,26.79,0L117.81,52l82,26.64c7.44,2.41,19.5,2.4,26.8,0s7.19-6.39-.24-8.81l-82-26.63,85.86-28.53C237.52,12.19,237.41,8.23,230,5.81Z"/><path class="cls-1" d="M213.23,84.42a49.31,49.31,0,0,1-14.64-2L117.82,56.18,44.72,80.47c-8.15,2.71-21,2.72-29.3,0C8.48,78.25,7,74.78,7,72.26s1.4-5.92,8.14-8.16L78,43.23,8.41,20.65C1.48,18.39,0,14.92,0,12.41S1.4,6.49,8.15,4.24c8.14-2.7,21-2.72,29.29,0l79.87,25.94L201.92,2c8.14-2.71,21-2.72,29.29,0h0c6.94,2.25,8.41,5.72,8.42,8.24s-1.4,5.92-8.15,8.16L157.18,43.1,227.61,66c6.94,2.25,8.41,5.72,8.42,8.24s-1.4,5.92-8.15,8.16A48.38,48.38,0,0,1,213.23,84.42ZM117.79,47.76l83.27,27c6.65,2.17,17.78,2.16,24.3,0a13,13,0,0,0,1.46-.56,14.44,14.44,0,0,0-1.68-.64l-93.6-30.4L229,10.82c.59-.2,1.07-.39,1.45-.56a14.19,14.19,0,0,0-1.67-.64h0c-6.65-2.16-17.78-2.16-24.3,0l-87.1,28.94L35,11.82c-6.65-2.16-17.78-2.15-24.3,0a13,13,0,0,0-1.46.56,16.22,16.22,0,0,0,1.67.64l92.7,30.1L17.68,71.69c-.6.2-1.07.39-1.46.56a14.19,14.19,0,0,0,1.67.64c6.65,2.16,17.78,2.16,24.3,0Z"/><path class="cls-2" d="M80.71,143.65v100C80.71,256,98.35,266,120.11,266s39.4-10,39.4-22.34v-100Z"/><path class="cls-1" d="M120.11,270c-24.33,0-43.4-11.57-43.4-26.34v-104h86.8v104C163.51,258.4,144.45,270,120.11,270ZM84.71,147.65v96c0,9.94,16.21,18.34,35.4,18.34s35.4-8.4,35.4-18.34v-96Z"/><circle class="cls-2" cx="119.53" cy="124.83" r="55.28"/><path class="cls-1" d="M119.53,184.11a59.28,59.28,0,1,1,59.27-59.28A59.34,59.34,0,0,1,119.53,184.11Zm0-110.56a51.28,51.28,0,1,0,51.27,51.28A51.34,51.34,0,0,0,119.53,73.55Z"/><rect class="cls-2" x="143.42" y="176.22" width="69.74" height="22.52" rx="7.5" transform="translate(-37.26 44.39) rotate(-12.86)"/><path class="cls-1" d="M152.44,208.74a11.52,11.52,0,0,1-11.2-8.94l-1.68-7.33a11.5,11.5,0,0,1,8.66-13.77l53.36-12.19a11.52,11.52,0,0,1,13.77,8.65L217,182.5a11.51,11.51,0,0,1-8.65,13.77L155,208.45A11.26,11.26,0,0,1,152.44,208.74Zm51.69-34.52a3.44,3.44,0,0,0-.77.09L150,186.5a3.42,3.42,0,0,0-2.18,1.55,3.51,3.51,0,0,0-.46,2.64L149,198a3.5,3.5,0,0,0,4.19,2.63l53.36-12.18a3.51,3.51,0,0,0,2.64-4.19L207.55,177a3.45,3.45,0,0,0-1.55-2.18A3.51,3.51,0,0,0,204.13,174.22Z"/><rect class="cls-1" x="113.64" y="57.23" width="8" height="12.65" transform="translate(-14.06 40.46) rotate(-18.43)"/></g></g></svg>