<svg xmlns="http://www.w3.org/2000/svg" viewBox="0 0 291.2 291.2"><defs><style>.cls-1{fill:#fff;}.cls-2{fill:#040000;}</style></defs><title>menu-icon--about-mono</title><g id="レイヤー_2" data-name="レイヤー 2"><g id="レイヤー_2-2" data-name="レイヤー 2"><circle class="cls-1" cx="145.6" cy="145.6" r="141.6"/><path class="cls-2" d="M145.6,291.2C65.32,291.2,0,225.88,0,145.6S65.32,0,145.6,0,291.2,65.32,291.2,145.6,225.88,291.2,145.6,291.2ZM145.6,8C69.73,8,8,69.73,8,145.6S69.73,283.2,145.6,283.2s137.6-61.73,137.6-137.6S221.47,8,145.6,8Z"/><ellipse class="cls-1" cx="147.73" cy="145.14" rx="107.86" ry="103.11"/><path class="cls-2" d="M147.73,252.25c-61.68,0-111.86-48.05-111.86-107.11S86.05,38,147.73,38,259.59,86.08,259.59,145.14,209.41,252.25,147.73,252.25Zm0-206.22C90.46,46,43.87,90.49,43.87,145.14s46.59,99.11,103.86,99.11,103.86-44.46,103.86-99.11S205,46,147.73,46Z"/><path class="cls-2" d="M80.07,164.1c-13.61,0-24.69-13.26-24.69-29.56S66.46,105,80.07,105s24.69,13.26,24.69,29.57S93.69,164.1,80.07,164.1Zm0-51.13c-9.2,0-16.69,9.68-16.69,21.57s7.49,21.56,16.69,21.56,16.69-9.67,16.69-21.56S89.28,113,80.07,113Z"/><path class="cls-2" d="M194.44,152.89c-13.61,0-24.69-13.27-24.69-29.57s11.08-29.56,24.69-29.56,24.69,13.26,24.69,29.56S208.06,152.89,194.44,152.89Zm0-51.13c-9.2,0-16.69,9.67-16.69,21.56s7.49,21.57,16.69,21.57,16.69-9.68,16.69-21.57S203.64,101.76,194.44,101.76Z"/><path class="cls-2" d="M136.55,170.55a11.11,11.11,0,0,1-6.1-1.91c-8.22-5.36-12.8-21.25-11.67-40.47l8,.47c-.64,10.86,1,28.68,8,33.3a2.66,2.66,0,0,0,3,.27c4-2,9-12.16,10-34l8,.38c-1,22.05-6.14,36.52-14.38,40.74A10.72,10.72,0,0,1,136.55,170.55Z"/><path class="cls-2" d="M64.18,211.85l-3.49-7.2c49.76-24.15,131.78-30.25,187.09-23.8l-.93,7.94C175.3,180.45,100.8,194.07,64.18,211.85Z"/><ellipse class="cls-2" cx="80.07" cy="134.54" rx="7.92" ry="9.79"/><ellipse class="cls-2" cx="194.44" cy="124.75" rx="7.92" ry="9.79"/></g></g></svg>