<svg xmlns="http://www.w3.org/2000/svg" viewBox="0 0 239.64 293.57"><defs><style>.cls-1{fill:#040000;}.cls-2{fill:#00923d;}.cls-3{fill:#fff4be;}.cls-4{fill:#936135;}.cls-5{fill:#ff6198;}</style></defs><title>menu-icon--culture-color</title><g id="レイヤー_2" data-name="レイヤー 2"><g id="レイヤー_2-2" data-name="レイヤー 2"><rect class="cls-1" x="31.64" y="17.66" width="8" height="154.79" transform="translate(-20.01 10.15) rotate(-12.69)"/><rect class="cls-1" x="158.42" y="125.56" width="100.44" height="8" transform="translate(36.54 304.77) rotate(-77.35)"/><rect class="cls-1" x="83.12" y="112.56" width="218.06" height="8" transform="translate(15.24 255.16) rotate(-69.32)"/><rect class="cls-1" x="47.64" y="69.15" width="8" height="172.82" transform="translate(-58.59 34.25) rotate(-23.89)"/><rect class="cls-2" x="87.77" y="227.23" width="31.76" height="52.93" rx="13.5"/><path class="cls-1" d="M106,284.16h-4.76a17.52,17.52,0,0,1-17.5-17.5V240.73a17.52,17.52,0,0,1,17.5-17.5H106a17.52,17.52,0,0,1,17.5,17.5v25.93A17.52,17.52,0,0,1,106,284.16Zm-4.76-52.93a9.51,9.51,0,0,0-9.5,9.5v25.93a9.51,9.51,0,0,0,9.5,9.5H106a9.51,9.51,0,0,0,9.5-9.5V240.73a9.51,9.51,0,0,0-9.5-9.5Z"/><rect class="cls-2" x="119.53" y="236.64" width="31.76" height="52.93" rx="13.5"/><path class="cls-1" d="M137.79,293.57H133a17.52,17.52,0,0,1-17.5-17.5V250.14a17.52,17.52,0,0,1,17.5-17.5h4.76a17.52,17.52,0,0,1,17.5,17.5v25.93A17.52,17.52,0,0,1,137.79,293.57ZM133,240.64a9.51,9.51,0,0,0-9.5,9.5v25.93a9.51,9.51,0,0,0,9.5,9.5h4.76a9.51,9.51,0,0,0,9.5-9.5V250.14a9.51,9.51,0,0,0-9.5-9.5Z"/><rect class="cls-3" x="26.99" y="176.23" width="69.74" height="22.52" rx="11.26" transform="translate(60.31 -9.93) rotate(17.81)"/><path class="cls-1" d="M84.33,210a15.06,15.06,0,0,1-4.66-.73l-45-14.44a15.3,15.3,0,0,1-9.86-19.2A15.28,15.28,0,0,1,44,165.74l45,14.44A15.26,15.26,0,0,1,84.33,210ZM39.38,173a7.26,7.26,0,0,0-2.22,14.17l45,14.45a7.26,7.26,0,0,0,4.44-13.83l-45-14.44A7.15,7.15,0,0,0,39.38,173Z"/><path class="cls-4" d="M230,5.81h0c-7.44-2.41-19.5-2.4-26.8,0L117.33,34.37,36.2,8C28.77,5.6,16.71,5.61,9.41,8h0c-7.31,2.43-7.2,6.39.24,8.8L90.77,43.19,16.42,67.9c-7.31,2.42-7.2,6.39.24,8.8h0c7.43,2.42,19.49,2.41,26.8,0L117.81,52l82,26.64c7.44,2.42,19.5,2.41,26.8,0s7.2-6.39-.24-8.8l-82-26.64,85.86-28.53C237.53,12.19,237.42,8.23,230,5.81Z"/><path class="cls-1" d="M213.24,84.43a49.31,49.31,0,0,1-14.64-2L117.83,56.18,44.72,80.48c-8.15,2.7-21,2.72-29.3,0C8.48,78.25,7,74.78,7,72.27s1.4-5.93,8.14-8.17L78,43.23,8.41,20.65C1.48,18.39,0,14.92,0,12.41S1.4,6.49,8.15,4.24c8.14-2.7,21-2.72,29.29,0l79.87,26L201.93,2c8.15-2.71,21-2.72,29.29,0h0c6.94,2.25,8.41,5.72,8.42,8.24s-1.4,5.92-8.15,8.16L157.18,43.1,227.63,66c6.93,2.26,8.4,5.73,8.41,8.24s-1.4,5.93-8.15,8.17A48.33,48.33,0,0,1,213.24,84.43ZM117.8,47.76l83.27,27.05c6.65,2.16,17.78,2.15,24.3,0a13,13,0,0,0,1.46-.56c-.43-.19-1-.41-1.68-.64l-93.6-30.4L229,10.82c.59-.2,1.07-.39,1.46-.56a14.44,14.44,0,0,0-1.68-.64h0c-6.65-2.16-17.78-2.16-24.3,0L117.34,38.58,35,11.82c-6.65-2.16-17.78-2.15-24.3,0a13,13,0,0,0-1.46.56,16.22,16.22,0,0,0,1.67.64l92.71,30.11L17.68,71.69c-.6.2-1.07.39-1.46.56a16,16,0,0,0,1.67.65c6.65,2.16,17.78,2.15,24.3,0Z"/><path class="cls-5" d="M80.72,143.66v100C80.72,256,98.36,266,120.12,266s39.4-10,39.4-22.35v-100Z"/><path class="cls-1" d="M120.12,270c-24.34,0-43.4-11.58-43.4-26.35v-104h86.8v104C163.52,258.41,144.46,270,120.12,270ZM84.72,147.66v96c0,9.94,16.21,18.35,35.4,18.35s35.4-8.41,35.4-18.35v-96Z"/><circle class="cls-3" cx="119.53" cy="124.84" r="55.28"/><path class="cls-1" d="M119.53,184.12a59.28,59.28,0,1,1,59.28-59.28A59.34,59.34,0,0,1,119.53,184.12Zm0-110.56a51.28,51.28,0,1,0,51.28,51.28A51.33,51.33,0,0,0,119.53,73.56Z"/><rect class="cls-3" x="143.43" y="176.23" width="69.74" height="22.52" rx="11.26" transform="translate(-37.26 44.39) rotate(-12.86)"/><path class="cls-1" d="M155.28,208a15.26,15.26,0,0,1-3.39-30.14l46-10.51a15.25,15.25,0,0,1,16.31,23,15.11,15.11,0,0,1-9.51,6.76l-46,10.51A15.16,15.16,0,0,1,155.28,208Zm46-33a6.87,6.87,0,0,0-1.61.19l-46,10.51a7.26,7.26,0,0,0,3.23,14.15l46-10.51a7.28,7.28,0,0,0,5.46-8.69A7.28,7.28,0,0,0,201.32,175Z"/><rect class="cls-1" x="113.64" y="57.23" width="8" height="12.65" transform="translate(-14.06 40.46) rotate(-18.43)"/></g></g></svg>