<svg xmlns="http://www.w3.org/2000/svg" viewBox="0 0 291.2 291.2"><defs><style>.cls-1{fill:#2d68c6;}.cls-2{fill:#040000;}.cls-3{fill:#fff8de;}.cls-4{fill:#fff;}</style></defs><title>menu-icon--about-color</title><g id="レイヤー_2" data-name="レイヤー 2"><g id="レイヤー_2-2" data-name="レイヤー 2"><circle class="cls-1" cx="145.6" cy="145.6" r="141.6"/><path class="cls-2" d="M145.6,291.2C65.32,291.2,0,225.88,0,145.6S65.32,0,145.6,0,291.2,65.32,291.2,145.6,225.88,291.2,145.6,291.2ZM145.6,8C69.73,8,8,69.73,8,145.6S69.73,283.2,145.6,283.2s137.6-61.73,137.6-137.6S221.47,8,145.6,8Z"/><ellipse class="cls-3" cx="145.64" cy="145.14" rx="108.3" ry="103.41"/><path class="cls-2" d="M145.63,252.55c-61.92,0-112.3-48.18-112.3-107.41S83.71,37.73,145.63,37.73,257.94,85.91,257.94,145.14,207.56,252.55,145.63,252.55Zm0-206.82c-57.51,0-104.3,44.59-104.3,99.41s46.79,99.41,104.3,99.41S249.94,200,249.94,145.14,203.15,45.73,145.63,45.73Z"/><ellipse class="cls-4" cx="77.7" cy="134.5" rx="20.78" ry="25.64"/><path class="cls-2" d="M77.7,164.14c-13.66,0-24.78-13.29-24.78-29.64S64,104.87,77.7,104.87s24.78,13.29,24.78,29.63S91.36,164.14,77.7,164.14Zm0-51.27c-9.25,0-16.78,9.7-16.78,21.63s7.53,21.64,16.78,21.64,16.78-9.7,16.78-21.64S87,112.87,77.7,112.87Z"/><ellipse class="cls-4" cx="192.53" cy="123.26" rx="20.78" ry="25.64"/><path class="cls-2" d="M192.53,152.9c-13.66,0-24.77-13.3-24.77-29.64s11.11-29.64,24.77-29.64,24.78,13.3,24.78,29.64S206.2,152.9,192.53,152.9Zm0-51.28c-9.25,0-16.77,9.71-16.77,21.64s7.52,21.64,16.77,21.64,16.78-9.71,16.78-21.64S201.79,101.62,192.53,101.62Z"/><path class="cls-2" d="M134.41,170.62a11.18,11.18,0,0,1-6.13-1.93c-8.24-5.38-12.83-21.3-11.7-40.57l8,.48c-.64,10.88,1,28.76,8.09,33.4a2.69,2.69,0,0,0,3,.27c4-2.05,9-12.21,10.08-34.1l8,.38c-1,22.11-6.16,36.62-14.43,40.84A10.66,10.66,0,0,1,134.41,170.62Z"/><path class="cls-2" d="M61.74,212l-3.49-7.19c50-24.23,132.31-30.35,187.83-23.88l-.92,7.95C173.32,180.54,98.51,194.21,61.74,212Z"/><ellipse class="cls-2" cx="77.7" cy="134.5" rx="7.96" ry="9.82"/><ellipse class="cls-2" cx="192.53" cy="124.69" rx="7.96" ry="9.82"/></g></g></svg>